<!DOCTYPE svg PUBLIC "-//W3C//DTD SVG 20010904//EN" "http://www.w3.org/TR/2001/REC-SVG-20010904/DTD/svg10.dtd">
<svg version="1.0" xmlns="http://www.w3.org/2000/svg" width="512px" height="512px" viewBox="0 0 5120 5120" preserveAspectRatio="xMidYMid meet">
<g id="layer1" fill="#f6e2ae" stroke="none">
 <path d="M3600 1875 c0 -305 1 -325 18 -334 49 -26 454 -163 467 -157 13 5 15 48 15 319 0 255 -3 317 -14 326 -19 16 -442 171 -467 171 -18 0 -19 -10 -19 -325z"/>
 <path d="M2411 1035 c-591 -217 -1079 -399 -1085 -405 -6 -6 -6 -13 0 -19 5 -6 97 -42 204 -81 l195 -70 1084 397 c596 219 1086 404 1088 411 3 7 3 15 1 18 -7 6 -396 144 -406 143 -4 0 -490 -178 -1081 -394z"/>
 </g>
<g id="layer2" fill="#2b2b3c" stroke="none">
 <path d="M2479 5105 c-144 -53 -2457 -1030 -2467 -1043 -9 -12 -12 -343 -12 -1574 l0 -1559 25 -24 c13 -14 31 -25 40 -25 9 0 535 -187 1168 -416 634 -229 1186 -428 1227 -441 74 -23 113 -25 185 -7 17 4 561 195 1209 426 649 230 1187 418 1197 418 9 0 28 9 43 21 l26 20 0 1578 c0 1490 -1 1579 -17 1593 -13 10 -2173 919 -2471 1039 -31 12 -110 9 -153 -6z m-11 -1706 l-3 -1501 -1145 -399 c-630 -220 -1146 -399 -1147 -399 -2 0 -3 638 -3 1418 l0 1419 1143 480 c628 265 1145 482 1150 482 4 1 6 -675 5 -1500z m298 1455 c60 -25 233 -98 384 -161 151 -64 403 -170 560 -236 157 -65 326 -136 375 -157 104 -43 327 -137 570 -240 94 -39 198 -83 233 -97 l62 -25 0 -1424 c0 -783 -3 -1424 -6 -1424 -3 0 -161 55 -350 122 l-344 122 0 375 c0 347 -1 378 -18 406 -17 27 -51 42 -323 144 -167 62 -323 122 -347 133 -37 17 -47 18 -73 8 -58 -24 -59 -35 -59 -420 0 -192 -3 -350 -7 -350 -5 0 -179 61 -388 135 -208 74 -380 135 -382 135 -2 0 -3 675 -3 1500 0 825 2 1500 4 1500 1 0 52 -21 112 -46z m1090 -2754 c120 -44 219 -80 221 -80 2 0 3 -139 3 -310 0 -242 -3 -310 -12 -309 -7 0 -110 35 -228 77 l-215 77 -3 313 c-1 195 1 312 7 312 6 0 108 -36 227 -80z m-975 -470 c171 -61 317 -114 324 -118 8 -4 -429 -170 -1059 -402 l-1072 -395 -353 127 c-195 70 -355 129 -356 130 -4 4 2176 767 2192 768 7 0 153 -50 324 -110z m806 -287 c120 -42 188 -70 179 -75 -7 -4 -492 -183 -1076 -398 l-1064 -390 -188 67 c-103 38 -188 70 -188 73 0 4 2120 786 2140 790 3 0 92 -30 197 -67z m771 -273 c160 -57 292 -107 292 -110 0 -4 -493 -181 -1095 -393 l-1095 -387 -285 102 c-157 57 -282 104 -278 106 500 186 2151 789 2158 788 6 -2 142 -49 303 -106z"/>
 <path d="M1221 3659 c-58 -11 -127 -70 -166 -140 -29 -53 -30 -57 -33 -222 l-4 -167 -58 -59 c-133 -135 -186 -305 -145 -466 20 -79 48 -130 104 -188 80 -83 184 -125 307 -121 177 5 349 119 433 287 81 161 80 310 -2 450 -28 47 -93 111 -132 129 -23 10 -23 13 -27 182 -4 192 -11 215 -81 276 -53 46 -106 57 -196 39z"/>
 </g>
<g id="layer3" fill="#d3a644" stroke="none">
 <path d="M1330 4445 c-619 -260 -1137 -480 -1152 -489 l-28 -15 0 -1426 c0 -1131 3 -1427 13 -1430 12 -5 2305 790 2320 804 4 4 6 686 5 1516 -3 1333 -5 1510 -18 1512 -8 1 -521 -212 -1140 -472z m14 -804 c21 -5 52 -22 68 -38 57 -54 62 -73 66 -261 l4 -173 41 -26 c80 -49 130 -118 161 -222 31 -106 17 -215 -45 -338 -80 -160 -239 -262 -413 -267 -198 -6 -344 102 -391 289 -41 162 12 332 144 462 l59 58 4 170 c3 167 4 171 33 225 54 99 159 146 269 121z"/>
 <path d="M3430 2344 c-6 -14 -10 -169 -10 -366 l0 -340 -25 6 c-18 5 -25 2 -25 -8 0 -18 38 -28 62 -15 17 9 18 30 18 357 0 191 3 357 6 370 9 31 -14 28 -26 -4z"/>
 <path d="M4300 1307 c0 -8 11 -18 24 -21 13 -3 31 -9 40 -12 10 -4 16 -1 16 9 0 8 -11 18 -24 21 -13 3 -31 9 -40 12 -10 4 -16 1 -16 -9z"/>
 <path d="M4610 1197 c0 -8 11 -18 24 -21 13 -3 31 -9 40 -12 10 -4 16 -1 16 9 0 8 -11 18 -24 21 -13 3 -31 9 -40 12 -10 4 -16 1 -16 -9z"/>
 </g>
<g id="layer4" fill="#e8c057" stroke="none">
 <path d="M2630 3406 l0 -1504 24 -15 c13 -9 50 -23 82 -33 32 -9 66 -21 74 -25 29 -16 93 -39 109 -39 9 0 29 -7 45 -15 16 -8 54 -23 85 -32 31 -8 63 -20 71 -24 29 -16 93 -39 109 -39 9 0 29 -7 44 -15 24 -12 154 -55 168 -55 2 0 4 166 4 369 0 349 1 370 19 390 23 25 77 28 96 6 7 -8 22 -15 34 -15 11 0 30 -7 40 -15 11 -8 29 -15 40 -15 12 0 30 -7 40 -15 11 -8 29 -15 40 -15 12 0 30 -7 40 -15 11 -8 29 -15 40 -15 12 0 30 -7 40 -15 11 -8 29 -15 40 -15 12 0 30 -7 40 -15 11 -8 29 -15 40 -15 12 0 30 -7 40 -15 11 -8 29 -15 40 -15 12 0 30 -7 40 -15 11 -8 28 -15 39 -15 10 0 32 -9 48 -21 l29 -20 0 -388 c0 -299 3 -391 13 -399 6 -5 32 -15 57 -22 25 -7 69 -23 98 -36 29 -13 60 -24 70 -24 9 0 30 -7 46 -15 16 -8 54 -22 85 -31 31 -9 80 -27 109 -40 29 -13 60 -24 70 -24 9 0 28 -6 42 -13 52 -26 121 -49 135 -43 13 5 15 184 13 1438 l-3 1432 -25 13 c-55 27 -139 63 -149 63 -5 0 -22 6 -38 14 -15 8 -41 20 -58 26 -38 16 -75 32 -147 64 -31 15 -61 26 -67 26 -5 0 -22 7 -38 15 -50 26 -142 65 -152 65 -5 0 -22 6 -38 14 -15 8 -41 20 -58 26 -38 16 -75 32 -147 64 -31 15 -61 26 -67 26 -5 0 -22 6 -38 14 -15 8 -41 20 -58 26 -16 7 -46 20 -65 28 -19 9 -48 21 -65 28 -83 34 -117 48 -207 88 -31 15 -61 26 -67 26 -5 0 -22 6 -38 14 -15 8 -41 20 -58 26 -37 16 -79 33 -125 53 -19 8 -48 20 -65 27 -40 17 -78 33 -147 64 -31 15 -61 26 -67 26 -5 0 -22 6 -38 14 -15 8 -41 20 -58 26 -78 32 -159 68 -187 81 -10 5 -29 9 -43 9 l-25 0 0 -1504z"/>
 <path d="M2490 1739 c-30 -11 -69 -26 -87 -34 -17 -8 -37 -15 -45 -15 -14 0 -104 -32 -155 -55 -17 -8 -37 -15 -45 -15 -14 0 -104 -32 -155 -55 -17 -8 -37 -15 -45 -15 -14 0 -104 -32 -155 -55 -17 -8 -37 -15 -45 -15 -14 0 -104 -32 -155 -55 -17 -8 -37 -15 -43 -15 -12 0 -132 -41 -175 -59 -11 -5 -58 -21 -105 -36 -47 -16 -89 -31 -95 -35 -5 -4 -44 -17 -85 -30 -41 -12 -94 -31 -117 -41 -23 -10 -48 -19 -55 -19 -14 0 -104 -32 -155 -55 -17 -8 -37 -15 -45 -15 -14 0 -104 -32 -155 -55 -17 -8 -37 -15 -45 -15 -12 0 -93 -28 -151 -53 -39 -17 -30 -39 23 -57 25 -8 50 -18 55 -21 6 -4 35 -14 65 -24 30 -9 69 -23 85 -30 17 -7 44 -17 60 -21 17 -4 35 -10 40 -14 6 -4 35 -15 65 -25 30 -9 69 -23 85 -30 17 -7 41 -16 55 -20 14 -3 39 -13 55 -20 17 -8 51 -19 76 -26 39 -10 50 -10 79 4 18 10 38 17 44 17 6 0 22 6 36 13 14 7 46 19 73 26 26 8 50 18 53 22 3 5 13 9 22 9 9 0 28 6 42 13 14 7 46 19 73 26 26 8 50 18 53 22 3 5 13 9 22 9 9 0 28 6 42 13 14 7 46 19 73 26 26 8 50 18 53 22 3 5 13 9 22 9 9 0 28 6 42 13 14 7 46 19 73 26 26 8 50 18 53 22 3 5 13 9 22 9 9 0 28 6 42 13 14 7 46 19 73 26 26 8 50 18 53 22 3 5 13 9 22 9 9 0 28 6 42 13 14 7 46 19 73 26 26 8 50 18 53 22 3 5 13 9 22 9 9 0 28 6 42 13 14 7 46 19 73 26 26 8 50 18 53 22 3 5 13 9 22 9 9 0 28 6 42 13 14 7 46 19 73 26 26 8 50 18 53 22 3 5 13 9 22 9 9 0 28 6 42 13 14 7 46 19 73 26 26 8 50 18 53 22 3 5 13 9 22 9 9 0 28 6 42 13 14 7 46 19 73 26 26 8 50 18 53 22 3 5 11 9 19 9 8 0 26 5 42 12 15 6 50 19 78 28 60 19 69 42 26 64 -16 9 -38 16 -49 16 -10 0 -22 4 -28 9 -5 4 -34 16 -64 26 -30 10 -68 24 -85 31 -16 7 -57 20 -90 29 -33 10 -64 21 -70 25 -5 4 -35 15 -65 25 -30 10 -64 22 -75 26 -39 17 -108 39 -119 38 -6 0 -36 -9 -66 -20z"/>
 <path d="M4106 1180 c-22 -11 -46 -20 -53 -20 -7 0 -32 -9 -56 -19 -23 -11 -60 -25 -82 -31 -22 -7 -44 -16 -50 -20 -5 -4 -31 -13 -58 -20 -26 -7 -50 -17 -53 -21 -3 -5 -12 -9 -21 -9 -8 0 -29 -6 -46 -14 -18 -8 -50 -20 -72 -26 -22 -7 -44 -16 -50 -20 -5 -4 -31 -13 -58 -20 -26 -7 -50 -17 -53 -21 -3 -5 -13 -9 -22 -9 -9 0 -30 -7 -46 -15 -15 -8 -35 -15 -42 -15 -8 0 -33 -9 -57 -19 -23 -11 -60 -25 -82 -31 -22 -7 -44 -16 -50 -21 -5 -5 -16 -9 -25 -9 -8 0 -28 -7 -44 -15 -15 -8 -35 -15 -42 -15 -8 0 -33 -9 -57 -19 -23 -11 -60 -25 -82 -31 -22 -7 -44 -16 -50 -21 -5 -5 -16 -9 -25 -9 -8 0 -28 -7 -44 -15 -15 -8 -35 -15 -42 -15 -8 0 -33 -9 -57 -19 -23 -11 -60 -25 -82 -31 -22 -7 -44 -16 -50 -21 -5 -5 -16 -9 -25 -9 -8 0 -28 -7 -44 -15 -15 -8 -35 -15 -42 -15 -8 0 -33 -9 -57 -19 -23 -11 -60 -25 -82 -31 -22 -7 -44 -16 -49 -21 -6 -5 -17 -9 -25 -9 -9 0 -29 -7 -45 -15 -15 -8 -35 -15 -42 -15 -8 0 -33 -9 -57 -19 -23 -11 -59 -24 -79 -31 -53 -16 -47 -35 15 -55 28 -9 66 -23 82 -30 17 -7 50 -19 75 -25 25 -7 50 -15 55 -20 6 -4 28 -13 50 -20 22 -6 54 -18 70 -25 17 -7 48 -18 70 -25 22 -7 49 -17 60 -21 64 -27 74 -28 122 -12 26 9 53 19 58 23 6 4 44 17 85 30 41 12 80 25 85 30 6 4 44 17 85 30 41 12 80 25 85 30 6 4 44 17 85 30 41 12 80 25 85 30 6 4 44 17 85 30 41 12 80 25 85 30 6 4 44 17 85 30 41 12 80 25 85 30 6 4 37 15 70 25 33 9 74 22 90 29 17 7 55 21 85 31 30 10 69 23 85 30 17 6 55 20 85 30 30 10 69 23 85 30 17 6 55 20 85 30 30 10 69 23 85 30 17 7 55 21 85 30 30 10 60 21 65 25 6 4 44 17 85 30 41 12 80 25 85 30 6 4 37 15 70 25 33 9 74 23 90 31 17 8 50 20 75 27 60 17 58 37 -5 57 -27 9 -62 22 -77 28 -15 6 -53 19 -85 28 -32 9 -62 20 -68 24 -5 4 -35 15 -65 25 -30 10 -68 24 -85 31 -16 7 -56 20 -88 29 -32 9 -70 23 -85 31 -33 17 -29 17 -76 -6z"/>
 </g>

</svg>